<?xml version="1.0" encoding="UTF-8"?>
<!DOCTYPE svg PUBLIC "-//W3C//DTD SVG 1.1//EN" "http://www.w3.org/Graphics/SVG/1.1/DTD/svg11.dtd">
<svg xmlns="http://www.w3.org/2000/svg" version="1.1" width="512px" height="512px" style="shape-rendering:geometricPrecision; text-rendering:geometricPrecision; image-rendering:optimizeQuality; fill-rule:evenodd; clip-rule:evenodd" xmlns:xlink="http://www.w3.org/1999/xlink">
<g><path style="opacity:0.974" fill="#030303" d="M 291.5,-0.5 C 294.167,-0.5 296.833,-0.5 299.5,-0.5C 364.435,53.2588 429.269,107.259 494,161.5C 496,165.5 496,169.5 494,173.5C 484.341,180.732 474.841,188.066 465.5,195.5C 383.534,257.164 301.867,319.33 220.5,382C 217.167,384 213.833,384 210.5,382C 156.176,335.529 101.176,290.029 45.5,245.5C 36.1637,237.399 26.6637,229.399 17,221.5C 15,217.5 15,213.5 17,209.5C 108.659,139.601 200.159,69.601 291.5,-0.5 Z"/></g>
<g><path style="opacity:1" fill="#cfd1d2" d="M 312.5,32.5 C 309.484,33.3431 306.817,34.8431 304.5,37C 295.308,43.7067 286.641,50.8734 278.5,58.5C 274.868,55.2844 270.868,54.7844 266.5,57C 262.953,60.5626 262.62,64.396 265.5,68.5C 261.388,70.7279 257.388,73.2279 253.5,76C 243.176,83.9651 233.176,92.1317 223.5,100.5C 216.162,98.1685 212.162,100.835 211.5,108.5C 196.19,119.815 181.19,131.482 166.5,143.5C 163.3,144.044 160.967,145.71 159.5,148.5C 130.209,170.457 101.209,192.791 72.5,215.5C 125.929,261.27 179.929,306.27 234.5,350.5C 228.495,355.601 222.328,360.601 216,365.5C 156.167,315.667 96.3333,265.833 36.5,216C 122.167,150.333 207.833,84.6667 293.5,19C 295.289,18.4795 296.956,18.8129 298.5,20C 303.361,24.0321 308.028,28.1988 312.5,32.5 Z"/></g>
<g><path style="opacity:1" fill="#eff0f0" d="M 312.5,32.5 C 366.654,77.0868 420.654,121.92 474.5,167C 394.65,228.418 314.65,289.585 234.5,350.5C 179.929,306.27 125.929,261.27 72.5,215.5C 101.209,192.791 130.209,170.457 159.5,148.5C 159.168,152.676 160.502,156.176 163.5,159C 206.313,196.569 249.313,233.903 292.5,271C 299.207,272.439 302.874,269.773 303.5,263C 303.205,260.077 301.871,257.743 299.5,256C 257.167,219 214.833,182 172.5,145C 170.655,143.872 168.655,143.372 166.5,143.5C 181.19,131.482 196.19,119.815 211.5,108.5C 212.001,111.155 213.334,113.322 215.5,115C 257.833,152 300.167,189 342.5,226C 349.768,228.92 354.101,226.587 355.5,219C 355.205,216.077 353.871,213.743 351.5,212C 308.962,174.624 266.295,137.458 223.5,100.5C 233.176,92.1317 243.176,83.9651 253.5,76C 257.388,73.2279 261.388,70.7279 265.5,68.5C 308.307,106.468 351.307,144.301 394.5,182C 401.768,184.92 406.101,182.587 407.5,175C 407.205,172.077 405.871,169.743 403.5,168C 361.64,131.635 319.973,95.1348 278.5,58.5C 286.641,50.8734 295.308,43.7067 304.5,37C 306.817,34.8431 309.484,33.3431 312.5,32.5 Z"/></g>
<g><path style="opacity:1" fill="#050505" d="M 278.5,58.5 C 319.973,95.1348 361.64,131.635 403.5,168C 405.871,169.743 407.205,172.077 407.5,175C 406.101,182.587 401.768,184.92 394.5,182C 351.307,144.301 308.307,106.468 265.5,68.5C 262.62,64.396 262.953,60.5626 266.5,57C 270.868,54.7844 274.868,55.2844 278.5,58.5 Z"/></g>
<g><path style="opacity:1" fill="#050505" d="M 223.5,100.5 C 266.295,137.458 308.962,174.624 351.5,212C 353.871,213.743 355.205,216.077 355.5,219C 354.101,226.587 349.768,228.92 342.5,226C 300.167,189 257.833,152 215.5,115C 213.334,113.322 212.001,111.155 211.5,108.5C 212.162,100.835 216.162,98.1685 223.5,100.5 Z"/></g>
<g><path style="opacity:1" fill="#050505" d="M 166.5,143.5 C 168.655,143.372 170.655,143.872 172.5,145C 214.833,182 257.167,219 299.5,256C 301.871,257.743 303.205,260.077 303.5,263C 302.874,269.773 299.207,272.439 292.5,271C 249.313,233.903 206.313,196.569 163.5,159C 160.502,156.176 159.168,152.676 159.5,148.5C 160.967,145.71 163.3,144.044 166.5,143.5 Z"/></g>
<g><path style="opacity:1" fill="#050505" d="M 112.5,187.5 C 115.32,187.248 117.986,187.748 120.5,189C 164.348,227.186 207.848,265.686 251,304.5C 251.742,314.039 247.575,317.205 238.5,314C 195.333,276.167 152.167,238.333 109,200.5C 106.325,195.011 107.492,190.678 112.5,187.5 Z"/></g>
<g><path style="opacity:0.999" fill="#ced0d1" d="M 465.5,195.5 C 470.512,200.51 475.845,205.177 481.5,209.5C 393.185,277.636 304.685,345.636 216,413.5C 155.125,362.29 93.9585,311.456 32.5,261C 31.1772,260.184 30.5106,259.017 30.5,257.5C 35.5,253.5 40.5,249.5 45.5,245.5C 101.176,290.029 156.176,335.529 210.5,382C 213.833,384 217.167,384 220.5,382C 301.867,319.33 383.534,257.164 465.5,195.5 Z"/></g>
<g><path style="opacity:0.993" fill="#040404" d="M 469.5,239.5 C 386.376,302.784 303.376,366.284 220.5,430C 217.134,431.879 213.8,431.879 210.5,430C 155.167,383.667 99.8333,337.333 44.5,291C 43.255,290.209 41.9217,289.709 40.5,289.5C 32.1785,282.345 24.0118,275.012 16,267.5C 14.8783,255.961 19.7117,252.628 30.5,257.5C 30.5106,259.017 31.1772,260.184 32.5,261C 93.9585,311.456 155.125,362.29 216,413.5C 304.685,345.636 393.185,277.636 481.5,209.5C 485.278,207.036 489.278,206.87 493.5,209C 495.429,212.256 495.929,215.756 495,219.5C 493.016,221.763 490.849,223.93 488.5,226C 482.108,230.519 475.775,235.019 469.5,239.5 Z"/></g>
<g><path style="opacity:0.999" fill="#edeeee" d="M 469.5,239.5 C 473.183,243.18 477.183,246.514 481.5,249.5C 393.185,317.636 304.685,385.636 216,453.5C 155.125,402.29 93.9585,351.456 32.5,301C 31.1772,300.184 30.5106,299.017 30.5,297.5C 33.8333,294.833 37.1667,292.167 40.5,289.5C 41.9217,289.709 43.255,290.209 44.5,291C 99.8333,337.333 155.167,383.667 210.5,430C 213.8,431.879 217.134,431.879 220.5,430C 303.376,366.284 386.376,302.784 469.5,239.5 Z"/></g>
<g><path style="opacity:0.993" fill="#040404" d="M 469.5,279.5 C 386.376,342.784 303.376,406.284 220.5,470C 217.167,472 213.833,472 210.5,470C 155.167,423.667 99.8333,377.333 44.5,331C 43.255,330.209 41.9217,329.709 40.5,329.5C 32.1785,322.345 24.0118,315.012 16,307.5C 14.8783,295.961 19.7117,292.628 30.5,297.5C 30.5106,299.017 31.1772,300.184 32.5,301C 93.9585,351.456 155.125,402.29 216,453.5C 304.685,385.636 393.185,317.636 481.5,249.5C 485.278,247.036 489.278,246.87 493.5,249C 495.429,252.256 495.929,255.756 495,259.5C 493.016,261.763 490.849,263.93 488.5,266C 482.108,270.519 475.775,275.019 469.5,279.5 Z"/></g>
<g><path style="opacity:0.999" fill="#cdcfd0" d="M 469.5,279.5 C 473.183,283.18 477.183,286.514 481.5,289.5C 393.185,357.636 304.685,425.636 216,493.5C 155.125,442.29 93.9585,391.456 32.5,341C 31.1772,340.184 30.5106,339.017 30.5,337.5C 33.8333,334.833 37.1667,332.167 40.5,329.5C 41.9217,329.709 43.255,330.209 44.5,331C 99.8333,377.333 155.167,423.667 210.5,470C 213.833,472 217.167,472 220.5,470C 303.376,406.284 386.376,342.784 469.5,279.5 Z"/></g>
<g><path style="opacity:0.956" fill="#020202" d="M 219.5,511.5 C 216.833,511.5 214.167,511.5 211.5,511.5C 145.889,457.391 80.7221,402.724 16,347.5C 14.8783,335.961 19.7117,332.628 30.5,337.5C 30.5106,339.017 31.1772,340.184 32.5,341C 93.9585,391.456 155.125,442.29 216,493.5C 304.685,425.636 393.185,357.636 481.5,289.5C 485.559,286.85 489.726,286.85 494,289.5C 496.109,293.781 495.942,297.948 493.5,302C 401.918,371.611 310.585,441.444 219.5,511.5 Z"/></g>
</svg>
